<?xml version="1.0" encoding="UTF-8"?>
<svg xmlns="http://www.w3.org/2000/svg" xmlns:xlink="http://www.w3.org/1999/xlink" width="30px" height="30px" viewBox="0 0 30 29" version="1.1">
<defs>
<linearGradient id="linear0" gradientUnits="userSpaceOnUse" x1="0.5" y1="0" x2="0.5" y2="1" gradientTransform="matrix(15.988281,0,0,11.097656,0,7.105469)">
<stop offset="0" style="stop-color:rgb(25.882353%,27.058824%,70.196078%);stop-opacity:1;"/>
<stop offset="1" style="stop-color:rgb(17.647059%,18.431373%,47.843137%);stop-opacity:1;"/>
</linearGradient>
</defs>
<g id="surface1">
<path style=" stroke:none;fill-rule:nonzero;fill:rgb(25.882353%,27.058824%,70.196078%);fill-opacity:1;" d="M 22.648438 17.847656 C 22.652344 16.390625 21.539062 15.15625 20.046875 14.957031 C 18.644531 14.777344 17.34375 14.15625 16.34375 13.1875 C 16.21875 13.066406 16.101562 12.941406 15.988281 12.8125 C 15.191406 11.90625 14.679688 10.796875 14.511719 9.617188 C 14.308594 8.175781 13.03125 7.101562 11.527344 7.105469 L 5.105469 7.105469 C 2.289062 7.113281 0.0078125 9.320312 0 12.039062 C 0.0078125 14.761719 2.289062 16.964844 5.105469 16.972656 L 9.421875 16.972656 C 11.085938 16.976562 12.433594 18.28125 12.4375 19.890625 L 12.4375 24.0625 C 12.445312 26.785156 14.726562 28.988281 17.542969 28.996094 C 20.359375 28.988281 22.640625 26.785156 22.648438 24.0625 Z M 22.648438 17.847656 "/>
<path style=" stroke:none;fill-rule:nonzero;fill:url(#linear0);" d="M 15.988281 12.8125 C 15.1875 11.90625 14.675781 10.796875 14.511719 9.617188 C 14.304688 8.175781 13.03125 7.105469 11.527344 7.105469 L 5.105469 7.105469 C 2.289062 7.113281 0.0078125 9.320312 0 12.042969 C 0.0078125 14.761719 2.289062 16.96875 5.105469 16.976562 L 9.421875 16.976562 C 10.394531 16.976562 11.3125 17.433594 11.875 18.203125 C 13.816406 16.890625 15.261719 14.996094 15.988281 12.8125 Z M 15.988281 12.8125 "/>
<path style=" stroke:none;fill-rule:nonzero;fill:rgb(25.882353%,27.058824%,70.196078%);fill-opacity:1;" d="M 30 5.929688 C 30 2.65625 27.253906 0 23.863281 0 C 20.476562 0 17.730469 2.65625 17.730469 5.929688 C 17.730469 9.207031 20.476562 11.863281 23.863281 11.863281 C 27.253906 11.863281 30 9.207031 30 5.929688 Z M 30 5.929688 "/>
<path style=" stroke:none;fill-rule:nonzero;fill:rgb(30.980392%,81.960784%,77.254902%);fill-opacity:1;" d="M 8.917969 24.335938 C 8.917969 22.152344 7.085938 20.378906 4.828125 20.378906 C 2.566406 20.378906 0.734375 22.152344 0.734375 24.335938 C 0.734375 26.519531 2.566406 28.289062 4.828125 28.289062 C 7.085938 28.289062 8.917969 26.519531 8.917969 24.335938 Z M 8.917969 24.335938 "/>
</g>
</svg>
