<?xml version="1.0" encoding="UTF-8"?>
<svg xmlns="http://www.w3.org/2000/svg" xmlns:xlink="http://www.w3.org/1999/xlink" width="100px" height="65px" viewBox="0 0 99 65" version="1.1">
<g id="surface1">
<path style=" stroke:none;fill-rule:nonzero;fill:rgb(80%,80%,80%);fill-opacity:1;" d="M 65.816406 59.472656 L 65.691406 59.289062 C 65.875 59.167969 66.054688 59.042969 66.234375 58.914062 L 66.359375 59.097656 C 66.179688 59.222656 65.996094 59.351562 65.816406 59.472656 Z M 65.816406 59.472656 "/>
<path style=" stroke:none;fill-rule:nonzero;fill:rgb(80%,80%,80%);fill-opacity:1;" d="M 48.027344 65 L 48.023438 64.777344 C 48.46875 64.773438 48.921875 64.761719 49.363281 64.738281 L 49.375 64.960938 C 48.929688 64.984375 48.476562 64.996094 48.027344 65 Z M 46.675781 64.980469 C 46.230469 64.964844 45.777344 64.941406 45.332031 64.90625 L 45.347656 64.6875 C 45.789062 64.71875 46.242188 64.742188 46.683594 64.757812 Z M 50.71875 64.867188 L 50.699219 64.648438 C 51.144531 64.605469 51.589844 64.558594 52.03125 64.5 L 52.0625 64.71875 C 51.617188 64.777344 51.164062 64.828125 50.71875 64.867188 Z M 43.988281 64.777344 C 43.542969 64.722656 43.09375 64.660156 42.652344 64.589844 L 42.6875 64.371094 C 43.125 64.441406 43.570312 64.503906 44.011719 64.554688 Z M 53.394531 64.511719 L 53.355469 64.292969 C 53.792969 64.21875 54.234375 64.128906 54.671875 64.035156 L 54.71875 64.25 C 54.28125 64.347656 53.835938 64.433594 53.394531 64.511719 Z M 41.324219 64.347656 C 40.886719 64.257812 40.441406 64.160156 40.007812 64.050781 L 40.0625 63.835938 C 40.492188 63.941406 40.933594 64.042969 41.367188 64.132812 Z M 56.027344 63.933594 L 55.972656 63.71875 C 56.402344 63.605469 56.835938 63.480469 57.261719 63.347656 L 57.324219 63.5625 C 56.898438 63.695312 56.460938 63.820312 56.027344 63.933594 Z M 38.703125 63.695312 C 38.273438 63.570312 37.839844 63.429688 37.414062 63.285156 L 37.484375 63.074219 C 37.90625 63.21875 38.335938 63.355469 38.765625 63.484375 Z M 58.605469 63.132812 L 58.53125 62.925781 C 58.953125 62.773438 59.371094 62.613281 59.785156 62.445312 L 59.867188 62.652344 C 59.453125 62.820312 59.027344 62.984375 58.605469 63.132812 Z M 36.144531 62.824219 C 35.722656 62.660156 35.304688 62.484375 34.894531 62.304688 L 34.980469 62.101562 C 35.390625 62.28125 35.804688 62.453125 36.222656 62.617188 Z M 61.109375 62.117188 L 61.015625 61.917969 C 61.421875 61.730469 61.828125 61.535156 62.226562 61.335938 L 62.324219 61.53125 C 61.925781 61.734375 61.515625 61.933594 61.109375 62.117188 Z M 33.667969 61.734375 C 33.261719 61.539062 32.859375 61.328125 32.464844 61.117188 L 32.570312 60.921875 C 32.960938 61.132812 33.363281 61.339844 33.761719 61.535156 Z M 63.515625 60.894531 L 63.410156 60.703125 C 63.796875 60.484375 64.1875 60.253906 64.5625 60.019531 L 64.679688 60.210938 C 64.296875 60.445312 63.90625 60.675781 63.515625 60.894531 Z M 31.289062 60.445312 C 30.90625 60.214844 30.519531 59.972656 30.144531 59.726562 L 30.265625 59.539062 C 30.636719 59.785156 31.019531 60.027344 31.402344 60.253906 Z M 29.03125 58.960938 C 28.667969 58.699219 28.300781 58.425781 27.949219 58.148438 L 28.085938 57.972656 C 28.433594 58.246094 28.796875 58.519531 29.160156 58.777344 Z M 26.902344 57.289062 C 26.558594 57 26.21875 56.695312 25.890625 56.390625 L 26.039062 56.226562 C 26.367188 56.53125 26.703125 56.832031 27.042969 57.121094 Z M 24.917969 55.449219 C 24.601562 55.128906 24.289062 54.800781 23.988281 54.46875 L 24.148438 54.320312 C 24.449219 54.648438 24.761719 54.976562 25.074219 55.292969 Z M 23.09375 53.449219 C 22.808594 53.105469 22.519531 52.75 22.246094 52.394531 L 22.421875 52.257812 C 22.695312 52.613281 22.976562 52.964844 23.265625 53.308594 Z M 21.441406 51.304688 C 21.183594 50.9375 20.929688 50.5625 20.683594 50.183594 L 20.871094 50.0625 C 21.113281 50.4375 21.367188 50.8125 21.621094 51.175781 Z M 19.972656 49.03125 C 19.746094 48.644531 19.523438 48.246094 19.3125 47.851562 L 19.507812 47.746094 C 19.714844 48.140625 19.9375 48.535156 20.164062 48.917969 Z M 18.699219 46.644531 C 18.503906 46.238281 18.316406 45.824219 18.136719 45.410156 L 18.339844 45.324219 C 18.515625 45.730469 18.703125 46.144531 18.898438 46.546875 Z M 17.628906 44.15625 C 17.46875 43.734375 17.316406 43.308594 17.171875 42.878906 L 17.382812 42.808594 C 17.523438 43.234375 17.675781 43.660156 17.835938 44.078125 Z M 17.628906 44.15625 "/>
<path style=" stroke:none;fill-rule:nonzero;fill:rgb(80%,80%,80%);fill-opacity:1;" d="M 16.765625 41.574219 C 16.703125 41.359375 16.644531 41.144531 16.585938 40.929688 L 16.800781 40.875 C 16.855469 41.085938 16.914062 41.300781 16.976562 41.511719 Z M 16.765625 41.574219 "/>
<path style=" stroke:none;fill-rule:nonzero;fill:rgb(80%,80%,80%);fill-opacity:1;" d="M 79.671875 28.882812 C 79.648438 28.664062 79.621094 28.441406 79.59375 28.222656 L 79.8125 28.195312 C 79.839844 28.414062 79.867188 28.636719 79.890625 28.859375 Z M 79.671875 28.882812 "/>
<path style=" stroke:none;fill-rule:nonzero;fill:rgb(80%,80%,80%);fill-opacity:1;" d="M 76.820312 46.769531 L 76.621094 46.671875 C 76.8125 46.285156 76.996094 45.886719 77.167969 45.488281 L 77.371094 45.578125 C 77.195312 45.976562 77.011719 46.378906 76.820312 46.769531 Z M 77.875 44.363281 L 77.667969 44.28125 C 77.824219 43.878906 77.976562 43.464844 78.117188 43.054688 L 78.328125 43.128906 C 78.183594 43.539062 78.03125 43.957031 77.875 44.363281 Z M 78.726562 41.875 L 78.515625 41.8125 C 78.640625 41.394531 78.757812 40.972656 78.867188 40.554688 L 79.078125 40.609375 C 78.972656 41.03125 78.855469 41.457031 78.726562 41.875 Z M 79.378906 39.328125 L 79.164062 39.28125 C 79.253906 38.855469 79.335938 38.425781 79.410156 37.996094 L 79.625 38.035156 C 79.554688 38.464844 79.46875 38.902344 79.378906 39.328125 Z M 79.820312 36.734375 L 79.601562 36.707031 C 79.65625 36.277344 79.707031 35.839844 79.746094 35.40625 L 79.964844 35.425781 C 79.925781 35.863281 79.878906 36.300781 79.820312 36.734375 Z M 80.054688 34.113281 L 79.832031 34.101562 C 79.855469 33.671875 79.867188 33.230469 79.871094 32.796875 L 80.089844 32.796875 C 80.085938 33.234375 80.074219 33.679688 80.054688 34.113281 Z M 79.855469 31.488281 C 79.84375 31.054688 79.820312 30.617188 79.792969 30.183594 L 80.011719 30.167969 C 80.042969 30.601562 80.0625 31.046875 80.078125 31.480469 Z M 79.855469 31.488281 "/>
<path style=" stroke:none;fill-rule:nonzero;fill:rgb(80%,80%,80%);fill-opacity:1;" d="M 75.902344 48.519531 L 75.710938 48.410156 C 75.820312 48.21875 75.925781 48.027344 76.03125 47.832031 L 76.222656 47.9375 C 76.117188 48.132812 76.011719 48.328125 75.902344 48.519531 Z M 75.902344 48.519531 "/>
<path style=" stroke:none;fill-rule:nonzero;fill:rgb(80%,80%,80%);fill-opacity:1;" d="M 18.816406 18.625 L 18.617188 18.53125 C 18.710938 18.332031 18.808594 18.128906 18.910156 17.933594 L 19.105469 18.03125 C 19.007812 18.230469 18.910156 18.425781 18.816406 18.625 Z M 18.816406 18.625 "/>
<path style=" stroke:none;fill-rule:nonzero;fill:rgb(80%,80%,80%);fill-opacity:1;" d="M 19.722656 16.859375 L 19.527344 16.75 C 19.742188 16.363281 19.96875 15.976562 20.195312 15.597656 L 20.382812 15.714844 C 20.15625 16.089844 19.933594 16.472656 19.722656 16.859375 Z M 75.292969 15.867188 C 75.066406 15.492188 74.832031 15.117188 74.589844 14.746094 L 74.773438 14.625 C 75.015625 14.996094 75.253906 15.375 75.480469 15.753906 Z M 21.09375 14.59375 L 20.910156 14.472656 C 21.15625 14.105469 21.410156 13.734375 21.671875 13.378906 L 21.847656 13.507812 C 21.589844 13.863281 21.335938 14.230469 21.09375 14.59375 Z M 73.839844 13.65625 C 73.585938 13.300781 73.320312 12.945312 73.050781 12.597656 L 73.222656 12.460938 C 73.496094 12.808594 73.761719 13.167969 74.019531 13.527344 Z M 22.644531 12.453125 L 22.472656 12.3125 C 22.746094 11.96875 23.03125 11.621094 23.320312 11.285156 L 23.484375 11.429688 C 23.199219 11.761719 22.917969 12.105469 22.644531 12.453125 Z M 72.214844 11.570312 C 71.933594 11.234375 71.636719 10.902344 71.339844 10.582031 L 71.503906 10.429688 C 71.800781 10.753906 72.097656 11.089844 72.382812 11.425781 Z M 24.367188 10.445312 L 24.207031 10.292969 C 24.507812 9.96875 24.820312 9.648438 25.132812 9.335938 L 25.289062 9.496094 C 24.976562 9.804688 24.664062 10.125 24.367188 10.445312 Z M 70.425781 9.625 C 70.117188 9.316406 69.796875 9.007812 69.472656 8.710938 L 69.621094 8.546875 C 69.949219 8.847656 70.269531 9.15625 70.582031 9.46875 Z M 26.246094 8.585938 L 26.097656 8.421875 C 26.421875 8.121094 26.757812 7.828125 27.097656 7.542969 L 27.238281 7.714844 C 26.902344 7.996094 26.570312 8.289062 26.246094 8.585938 Z M 68.484375 7.832031 C 68.152344 7.550781 67.804688 7.269531 67.460938 7 L 67.597656 6.824219 C 67.945312 7.09375 68.289062 7.378906 68.628906 7.664062 Z M 28.265625 6.886719 L 28.132812 6.710938 C 28.480469 6.441406 28.839844 6.171875 29.199219 5.917969 L 29.328125 6.101562 C 28.96875 6.351562 28.613281 6.617188 28.265625 6.886719 Z M 66.402344 6.207031 C 66.046875 5.949219 65.679688 5.699219 65.316406 5.457031 L 65.4375 5.273438 C 65.804688 5.515625 66.171875 5.769531 66.53125 6.027344 Z M 30.417969 5.359375 L 30.300781 5.171875 C 30.671875 4.933594 31.050781 4.695312 31.429688 4.472656 L 31.539062 4.664062 C 31.164062 4.886719 30.785156 5.121094 30.417969 5.359375 Z M 64.195312 4.753906 C 63.820312 4.53125 63.4375 4.308594 63.050781 4.101562 L 63.15625 3.90625 C 63.542969 4.117188 63.933594 4.339844 64.308594 4.566406 Z M 32.6875 4.015625 L 32.585938 3.820312 C 32.972656 3.609375 33.371094 3.40625 33.765625 3.214844 L 33.863281 3.414062 C 33.46875 3.605469 33.074219 3.808594 32.6875 4.015625 Z M 61.878906 3.492188 C 61.484375 3.296875 61.082031 3.109375 60.683594 2.933594 L 60.769531 2.730469 C 61.171875 2.90625 61.578125 3.097656 61.976562 3.292969 Z M 35.058594 2.863281 L 34.972656 2.660156 C 35.375 2.484375 35.789062 2.3125 36.199219 2.15625 L 36.277344 2.363281 C 35.871094 2.519531 35.460938 2.6875 35.058594 2.863281 Z M 59.464844 2.425781 C 59.054688 2.265625 58.640625 2.109375 58.226562 1.96875 L 58.296875 1.757812 C 58.714844 1.902344 59.132812 2.058594 59.542969 2.21875 Z M 37.515625 1.914062 L 37.445312 1.703125 C 37.863281 1.5625 38.289062 1.425781 38.710938 1.300781 L 38.773438 1.515625 C 38.351562 1.636719 37.929688 1.773438 37.515625 1.914062 Z M 56.96875 1.5625 C 56.550781 1.4375 56.121094 1.316406 55.699219 1.210938 L 55.75 0.996094 C 56.179688 1.101562 56.609375 1.222656 57.03125 1.347656 Z M 40.042969 1.167969 L 39.988281 0.953125 C 40.417969 0.847656 40.851562 0.75 41.28125 0.660156 L 41.324219 0.878906 C 40.898438 0.964844 40.464844 1.0625 40.042969 1.167969 Z M 54.410156 0.910156 C 53.984375 0.820312 53.550781 0.738281 53.117188 0.664062 L 53.152344 0.445312 C 53.589844 0.519531 54.027344 0.601562 54.457031 0.691406 Z M 42.621094 0.636719 L 42.585938 0.417969 C 43.019531 0.347656 43.460938 0.285156 43.898438 0.234375 L 43.925781 0.453125 C 43.492188 0.507812 43.054688 0.566406 42.621094 0.636719 Z M 51.8125 0.472656 C 51.378906 0.417969 50.9375 0.371094 50.503906 0.335938 L 50.519531 0.113281 C 50.960938 0.152344 51.40625 0.199219 51.839844 0.253906 Z M 45.238281 0.324219 L 45.21875 0.101562 C 45.660156 0.0664062 46.105469 0.0390625 46.542969 0.0234375 L 46.550781 0.246094 C 46.117188 0.261719 45.671875 0.289062 45.238281 0.324219 Z M 49.1875 0.25 C 48.75 0.234375 48.308594 0.222656 47.871094 0.222656 L 47.871094 0 C 48.3125 0 48.757812 0.0117188 49.195312 0.03125 Z M 49.1875 0.25 "/>
<path style=" stroke:none;fill-rule:nonzero;fill:rgb(80%,80%,80%);fill-opacity:1;" d="M 76.265625 17.613281 C 76.164062 17.417969 76.058594 17.222656 75.953125 17.027344 L 76.148438 16.921875 C 76.253906 17.117188 76.355469 17.3125 76.460938 17.511719 Z M 76.265625 17.613281 "/>
<path style=" stroke:none;fill-rule:nonzero;fill:rgb(94.901961%,94.901961%,94.901961%);fill-opacity:1;" d="M 40.734375 21.742188 L 38.695312 21.742188 L 38.695312 39.101562 C 38.695312 40.019531 37.957031 40.761719 37.042969 40.761719 L 3.691406 40.761719 L 3.691406 42.261719 C 3.695312 43.300781 4.53125 44.144531 5.566406 44.148438 L 40.734375 44.148438 C 41.769531 44.144531 42.609375 43.300781 42.609375 42.261719 L 42.609375 23.625 C 42.609375 22.585938 41.769531 21.742188 40.734375 21.742188 Z M 40.734375 21.742188 "/>
<path style=" stroke:none;fill-rule:nonzero;fill:rgb(24.705882%,23.921569%,33.72549%);fill-opacity:1;" d="M 37.042969 18.578125 L 1.875 18.578125 C 0.839844 18.582031 0 19.425781 0 20.464844 L 0 39.101562 C 0 40.140625 0.839844 40.984375 1.875 40.984375 L 37.042969 40.984375 C 38.078125 40.984375 38.914062 40.140625 38.917969 39.101562 L 38.917969 20.464844 C 38.914062 19.425781 38.078125 18.582031 37.042969 18.578125 Z M 38.695312 39.101562 C 38.695312 40.019531 37.957031 40.761719 37.042969 40.761719 L 1.875 40.761719 C 0.960938 40.761719 0.222656 40.019531 0.21875 39.101562 L 0.21875 20.464844 C 0.222656 19.546875 0.960938 18.800781 1.875 18.800781 L 37.042969 18.800781 C 37.957031 18.800781 38.695312 19.546875 38.695312 20.464844 Z M 38.695312 39.101562 "/>
<path style=" stroke:none;fill-rule:nonzero;fill:rgb(80%,80%,80%);fill-opacity:1;" d="M 34.390625 32.332031 L 22.042969 32.332031 C 21.554688 32.332031 21.160156 31.9375 21.160156 31.445312 C 21.160156 30.957031 21.554688 30.558594 22.042969 30.558594 L 34.390625 30.558594 C 34.878906 30.558594 35.273438 30.957031 35.273438 31.445312 C 35.273438 31.9375 34.878906 32.332031 34.390625 32.332031 Z M 34.390625 32.332031 "/>
<path style=" stroke:none;fill-rule:nonzero;fill:rgb(80%,80%,80%);fill-opacity:1;" d="M 26.671875 28.5625 L 22.042969 28.5625 C 21.554688 28.5625 21.160156 28.164062 21.160156 27.675781 C 21.160156 27.183594 21.554688 26.789062 22.042969 26.789062 L 26.671875 26.789062 C 27.160156 26.789062 27.554688 27.183594 27.554688 27.675781 C 27.554688 28.164062 27.160156 28.5625 26.671875 28.5625 Z M 26.671875 28.5625 "/>
<path style=" stroke:none;fill-rule:nonzero;fill:rgb(42.352941%,38.823529%,100%);fill-opacity:1;" d="M 16.480469 36.769531 L 5.238281 36.769531 C 4.71875 36.769531 4.300781 36.347656 4.300781 35.828125 L 4.300781 23.292969 C 4.300781 22.773438 4.71875 22.351562 5.238281 22.351562 L 16.480469 22.351562 C 17 22.351562 17.417969 22.773438 17.417969 23.292969 L 17.417969 35.828125 C 17.417969 36.347656 17 36.769531 16.480469 36.769531 Z M 16.480469 36.769531 "/>
<path style=" stroke:none;fill-rule:nonzero;fill:rgb(24.705882%,23.921569%,33.72549%);fill-opacity:1;" d="M 11.03125 34.160156 C 10.78125 34.152344 10.472656 34.144531 10.234375 33.96875 C 10.09375 33.859375 10.003906 33.691406 9.996094 33.511719 C 9.988281 33.382812 10.039062 33.257812 10.132812 33.171875 C 10.277344 33.0625 10.46875 33.035156 10.636719 33.097656 L 10.433594 31.609375 L 10.582031 31.589844 L 10.820312 33.339844 L 10.695312 33.28125 C 10.550781 33.214844 10.355469 33.183594 10.230469 33.289062 C 10.171875 33.34375 10.136719 33.421875 10.144531 33.503906 C 10.152344 33.640625 10.21875 33.765625 10.324219 33.847656 C 10.507812 33.984375 10.753906 34 11.035156 34.007812 Z M 11.03125 34.160156 "/>
<path style=" stroke:none;fill-rule:nonzero;fill:rgb(24.705882%,23.921569%,33.72549%);fill-opacity:1;" d="M 8.890625 31.738281 L 9.699219 31.738281 L 9.699219 31.890625 L 8.890625 31.890625 Z M 8.890625 31.738281 "/>
<path style=" stroke:none;fill-rule:nonzero;fill:rgb(24.705882%,23.921569%,33.72549%);fill-opacity:1;" d="M 11.441406 31.738281 L 12.246094 31.738281 L 12.246094 31.890625 L 11.441406 31.890625 Z M 11.441406 31.738281 "/>
<path style=" stroke:none;fill-rule:nonzero;fill:rgb(24.705882%,23.921569%,33.72549%);fill-opacity:1;" d="M 7.488281 29.65625 C 6.835938 29.582031 6.332031 28.953125 6.277344 28.316406 C 6.210938 27.5625 6.648438 26.84375 7.25 26.417969 C 7.878906 25.972656 8.664062 25.789062 9.421875 25.746094 C 10.898438 25.671875 12.351562 26.15625 13.496094 27.097656 C 14.0625 27.574219 14.59375 28.175781 14.796875 28.90625 C 14.96875 29.542969 14.828125 30.257812 14.320312 30.703125 C 14.066406 30.921875 13.734375 31.027344 13.402344 30.988281 C 13.007812 30.945312 12.644531 30.738281 12.332031 30.507812 C 11.71875 30.0625 11.21875 29.441406 10.472656 29.207031 C 9.929688 29.035156 9.21875 29.1875 8.886719 29.683594 C 8.8125 29.796875 8.761719 29.925781 8.742188 30.0625 C 8.730469 30.121094 8.761719 30.183594 8.820312 30.199219 C 8.882812 30.214844 8.945312 30.179688 8.960938 30.121094 C 9.046875 29.496094 9.8125 29.261719 10.347656 29.40625 C 11.128906 29.613281 11.65625 30.316406 12.296875 30.761719 C 12.628906 31.011719 13.019531 31.167969 13.433594 31.21875 C 13.789062 31.246094 14.144531 31.136719 14.421875 30.910156 C 14.96875 30.476562 15.179688 29.726562 15.058594 29.050781 C 14.917969 28.269531 14.394531 27.601562 13.824219 27.082031 C 12.660156 26.042969 11.152344 25.484375 9.597656 25.511719 C 8.804688 25.53125 7.976562 25.695312 7.292969 26.117188 C 6.632812 26.527344 6.121094 27.210938 6.050781 28.007812 C 5.992188 28.707031 6.367188 29.4375 7.007812 29.746094 C 7.160156 29.816406 7.320312 29.863281 7.488281 29.882812 C 7.628906 29.898438 7.628906 29.671875 7.488281 29.65625 Z M 7.488281 29.65625 "/>
<path style=" stroke:none;fill-rule:nonzero;fill:rgb(94.901961%,94.901961%,94.901961%);fill-opacity:1;" d="M 96.851562 51.132812 L 95.078125 51.132812 L 95.078125 56.9375 C 95.078125 57.980469 94.238281 58.824219 93.207031 58.824219 L 49.003906 58.824219 L 49.003906 59.675781 C 49.003906 60.839844 49.941406 61.78125 51.097656 61.78125 L 96.851562 61.78125 C 98.007812 61.78125 98.945312 60.839844 98.945312 59.675781 L 98.945312 53.242188 C 98.945312 52.078125 98.007812 51.136719 96.851562 51.132812 Z M 96.851562 51.132812 "/>
<path style=" stroke:none;fill-rule:nonzero;fill:rgb(24.705882%,23.921569%,33.72549%);fill-opacity:1;" d="M 93.207031 48.398438 L 47.453125 48.398438 C 46.296875 48.398438 45.359375 49.339844 45.359375 50.503906 L 45.359375 56.9375 C 45.359375 58.101562 46.296875 59.042969 47.453125 59.046875 L 93.207031 59.046875 C 94.363281 59.042969 95.300781 58.101562 95.300781 56.9375 L 95.300781 50.503906 C 95.300781 49.339844 94.363281 48.398438 93.207031 48.398438 Z M 95.078125 56.9375 C 95.078125 57.980469 94.238281 58.824219 93.207031 58.824219 L 47.453125 58.824219 C 46.417969 58.824219 45.582031 57.980469 45.578125 56.9375 L 45.578125 50.503906 C 45.582031 49.464844 46.417969 48.621094 47.453125 48.617188 L 93.207031 48.617188 C 94.238281 48.621094 95.078125 49.464844 95.078125 50.503906 Z M 95.078125 56.9375 "/>
<path style=" stroke:none;fill-rule:nonzero;fill:rgb(42.352941%,38.823529%,100%);fill-opacity:1;" d="M 55.484375 50.171875 C 53.535156 50.171875 51.957031 51.761719 51.957031 53.722656 C 51.957031 55.683594 53.535156 57.269531 55.484375 57.269531 C 57.429688 57.269531 59.011719 55.683594 59.011719 53.722656 C 59.007812 51.761719 57.429688 50.175781 55.484375 50.171875 Z M 55.484375 50.171875 "/>
<path style=" stroke:none;fill-rule:nonzero;fill:rgb(80%,80%,80%);fill-opacity:1;" d="M 87.824219 56.714844 L 62.578125 56.714844 C 62.089844 56.714844 61.695312 56.320312 61.695312 55.828125 C 61.695312 55.339844 62.089844 54.941406 62.578125 54.941406 L 87.824219 54.941406 C 88.308594 54.941406 88.703125 55.339844 88.703125 55.828125 C 88.703125 56.320312 88.308594 56.714844 87.824219 56.714844 Z M 87.824219 56.714844 "/>
<path style=" stroke:none;fill-rule:nonzero;fill:rgb(80%,80%,80%);fill-opacity:1;" d="M 75.144531 52.945312 L 62.578125 52.945312 C 62.089844 52.945312 61.695312 52.546875 61.695312 52.058594 C 61.695312 51.566406 62.089844 51.171875 62.578125 51.171875 L 75.144531 51.171875 C 75.632812 51.171875 76.027344 51.566406 76.027344 52.058594 C 76.027344 52.546875 75.632812 52.945312 75.144531 52.945312 Z M 75.144531 52.945312 "/>
<path style=" stroke:none;fill-rule:nonzero;fill:rgb(100%,100%,100%);fill-opacity:1;" d="M 55.242188 55.273438 C 55.152344 55.273438 55.0625 55.246094 54.992188 55.1875 L 54.988281 55.1875 L 54.035156 54.453125 C 53.847656 54.308594 53.8125 54.042969 53.957031 53.855469 C 54.097656 53.667969 54.363281 53.632812 54.550781 53.777344 L 55.167969 54.253906 L 56.625 52.339844 C 56.765625 52.152344 57.03125 52.117188 57.214844 52.261719 L 57.21875 52.261719 L 57.207031 52.273438 L 57.21875 52.261719 C 57.402344 52.402344 57.4375 52.671875 57.296875 52.859375 L 55.582031 55.105469 C 55.5 55.210938 55.375 55.273438 55.246094 55.273438 Z M 55.242188 55.273438 "/>
<path style=" stroke:none;fill-rule:nonzero;fill:rgb(94.901961%,94.901961%,94.901961%);fill-opacity:1;" d="M 90.347656 19.523438 L 90.113281 19.523438 C 90.117188 19.570312 90.117188 19.617188 90.117188 19.667969 L 90.117188 26.101562 C 90.117188 27.144531 89.277344 27.984375 88.246094 27.988281 L 66.3125 27.988281 L 66.3125 28.0625 C 66.3125 28.113281 66.316406 28.160156 66.316406 28.210938 C 66.394531 29.3125 67.308594 30.171875 68.40625 30.171875 L 90.347656 30.171875 C 91.503906 30.167969 92.4375 29.226562 92.441406 28.0625 L 92.441406 21.628906 C 92.4375 20.464844 91.503906 19.523438 90.347656 19.523438 Z M 90.347656 19.523438 "/>
<path style=" stroke:none;fill-rule:nonzero;fill:rgb(24.705882%,23.921569%,33.72549%);fill-opacity:1;" d="M 90.332031 19.523438 C 90.257812 18.417969 89.34375 17.5625 88.246094 17.5625 L 66.304688 17.5625 C 65.148438 17.5625 64.210938 18.503906 64.210938 19.667969 L 64.210938 26.101562 C 64.210938 27.265625 65.148438 28.207031 66.304688 28.210938 L 88.246094 28.210938 C 89.402344 28.207031 90.339844 27.265625 90.339844 26.101562 L 90.339844 19.667969 C 90.339844 19.621094 90.335938 19.570312 90.332031 19.523438 Z M 90.117188 26.101562 C 90.117188 27.144531 89.277344 27.984375 88.246094 27.988281 L 66.304688 27.988281 C 65.269531 27.984375 64.433594 27.144531 64.429688 26.101562 L 64.429688 19.667969 C 64.433594 18.628906 65.269531 17.785156 66.304688 17.78125 L 88.246094 17.78125 C 89.222656 17.785156 90.035156 18.542969 90.113281 19.523438 C 90.117188 19.570312 90.117188 19.617188 90.117188 19.667969 Z M 90.117188 26.101562 "/>
<path style=" stroke:none;fill-rule:nonzero;fill:rgb(80%,80%,80%);fill-opacity:1;" d="M 82.675781 25.660156 L 71.875 25.660156 C 71.386719 25.660156 70.992188 25.261719 70.992188 24.769531 C 70.992188 24.28125 71.386719 23.882812 71.875 23.882812 L 82.675781 23.882812 C 83.164062 23.882812 83.558594 24.28125 83.558594 24.769531 C 83.558594 25.261719 83.164062 25.660156 82.675781 25.660156 Z M 82.675781 25.660156 "/>
<path style=" stroke:none;fill-rule:nonzero;fill:rgb(80%,80%,80%);fill-opacity:1;" d="M 79.371094 21.886719 L 71.875 21.886719 C 71.386719 21.886719 70.992188 21.488281 70.992188 21 C 70.992188 20.511719 71.386719 20.113281 71.875 20.113281 L 79.371094 20.113281 C 79.855469 20.113281 80.25 20.511719 80.25 21 C 80.25 21.488281 79.855469 21.886719 79.371094 21.886719 Z M 79.371094 21.886719 "/>
</g>
</svg>
